<svg width="64" height="64" viewBox="0 0 64 64" fill="none" xmlns="http://www.w3.org/2000/svg">
<g id="RA-bw">
<path id="Vector" d="M18.501 20.0835L43.5842 1.50452C43.9481 1.23548 43.7582 0.665771 43.3151 0.665771H22.7422C20.3683 0.665771 18.0737 1.61529 16.3962 3.29278L3.29278 16.3804C1.61529 18.0737 0.665771 20.3525 0.665771 22.7422V41.2578C0.665771 43.6475 1.61529 45.9263 3.29278 47.6196L16.3804 60.7072C18.0737 62.3847 20.3683 63.3342 22.7422 63.3342H40.5457C41.0363 63.3342 41.1945 62.6696 40.7356 62.448L5.3659 45.7681C3.89415 45.0717 2.94462 43.5842 2.94462 41.9541V33.0761C2.94462 32.1424 3.38773 31.272 4.13153 30.7181L9.22729 26.9359V20.0677H18.501V20.0835Z" fill="url(#paint0_linear_725_674)"/>
<path id="Vector_2" d="M42.8878 27.2366L40.4665 33.8199H45.1983L42.8878 27.2366ZM22.5363 27.5056C22.5363 25.4008 21.0962 25.1001 19.577 25.1001H16.5227V30.0693H19.4662C21.0171 30.0535 22.5363 29.8477 22.5363 27.5056Z" fill="#CD163F"/>
<path id="Vector_3" d="M61.0554 16.7443L48.8699 4.5588C48.1894 3.87831 47.1133 3.78336 46.3062 4.33725L22.853 20.131C27.2999 20.4158 29.9902 22.2041 29.9902 26.3187C29.9902 29.8952 28.0595 32.1266 24.7837 32.5222V32.5855C26.3029 32.8704 27.3157 33.5667 28.0595 34.5162C28.3286 34.8485 28.5026 35.2442 28.5976 35.6398L30.4492 41.2578L38.4252 21.2862C38.71 20.5899 39.3905 20.131 40.1343 20.131H47.1449L56.4661 43.4575H50.7056C49.5346 43.4575 48.4426 42.7138 47.952 41.606L47.05 39.0581H38.5834L36.9376 43.4575H24.2931C23.6126 43.4575 23.0429 42.967 22.9321 42.2706L20.8273 36.1621C20.5425 35.1176 19.498 34.9435 18.4694 34.9435H16.4279V43.4417H9.22735V29.2938L4.92285 32.1899C4.52722 32.4589 4.30566 32.902 4.30566 33.3768V42.3814C4.30566 42.967 4.65382 43.4892 5.17606 43.7108L45.7681 60.7072C46.5277 61.0395 47.3981 60.8654 47.9837 60.2957L61.0554 47.2715C62.5272 45.8155 63.3501 43.8215 63.3501 41.7484V22.2516C63.3501 20.1784 62.5272 18.2003 61.0554 16.7443Z" fill="#CD163F"/>
</g>
<defs>
<linearGradient id="paint0_linear_725_674" x1="11.3332" y1="58.1354" x2="44.2425" y2="1.13498" gradientUnits="userSpaceOnUse">
<stop offset="0.125" stop-color="#CD163F"/>
<stop offset="1" stop-color="#F58733"/>
</linearGradient>
</defs>
</svg>
