<svg width="32" height="32" viewBox="0 0 32 32" fill="none" xmlns="http://www.w3.org/2000/svg">
<path d="M7.99999 2.66667H13.3333V10.6667H24V8L13.3333 0H5.33333V32H24V29.3333H7.99999V2.66667ZM16 21.3333H26.6667V18.6667H16V21.3333ZM26.8267 13.3333H24V16H26.8267C27.4915 16 28.129 16.2641 28.5991 16.7342C29.0692 17.2043 29.3333 17.8419 29.3333 18.5067V21.4933C29.3333 22.1581 29.0692 22.7957 28.5991 23.2658C28.129 23.7359 27.4915 24 26.8267 24H24V26.6667H26.8267C28.1987 26.6667 29.5146 26.1216 30.4848 25.1514C31.4549 24.1812 32 22.8654 32 21.4933V18.5067C32 17.1346 31.4549 15.8188 30.4848 14.8486C29.5146 13.8784 28.1987 13.3333 26.8267 13.3333ZM10.6667 18.5067V21.4933C10.6667 22.8654 11.2117 24.1812 12.1819 25.1514C13.1521 26.1216 14.4679 26.6667 15.84 26.6667H18.6667V24H15.84C15.1752 24 14.5376 23.7359 14.0675 23.2658C13.5974 22.7957 13.3333 22.1581 13.3333 21.4933V18.5067C13.3333 17.8419 13.5974 17.2043 14.0675 16.7342C14.5376 16.2641 15.1752 16 15.84 16H18.6667V13.3333H15.84C14.4679 13.3333 13.1521 13.8784 12.1819 14.8486C11.2117 15.8188 10.6667 17.1346 10.6667 18.5067Z" fill="black"/>
</svg>
