<svg width="16" height="16" viewBox="0 0 16 16" fill="none" xmlns="http://www.w3.org/2000/svg">
<g id="Delete-md">
<path id="Vector" fill-rule="evenodd" clip-rule="evenodd" d="M8.75 12.993H9.75V7.49301H8.75V12.993ZM6.25 12.993H7.25V7.49301H6.25V12.993ZM5 6.49301H11V13.076C11 13.583 10.597 13.993 10.1 13.993H5.9C5.403 13.993 5 13.583 5 13.076V6.49301ZM3.67 13.076C3.67 14.316 4.67 15.323 5.9 15.323H10.1C11.33 15.323 12.33 14.316 12.33 13.076V5.16301H3.67V13.076ZM6.747 2.71301L7.165 1.98601H8.835L9.253 2.71301H6.747ZM10.946 2.74301L10.583 2.06601L10.165 1.33701L9.741 0.600006H6.259L5.835 1.33701L5.417 2.06601L5.054 2.74301H2.5V4.24301H13.5V2.74301H10.946Z" fill="black"/>
</g>
</svg>
