<?xml version="1.0" encoding="UTF-8"?><svg id="Icons_black" xmlns="http://www.w3.org/2000/svg" viewBox="0 0 72 72"><defs><style>.cls-1{fill:#231f20;}</style></defs><g id="USB_drive"><g><path class="cls-1" d="M65.73,21.99l-14.22-14.22c-.36-.36-.94-.36-1.3,0l-9.78,9.78-3.23-3.23c-.36-.36-.94-.36-1.3,0L6.27,43.94c-.36,.36-.36,.94,0,1.3l16.57,16.57c.18,.18,.42,.27,.65,.27s.47-.09,.65-.27c.36-.36,.36-.94,0-1.3l-13.45-13.45,22.41-22.41c.36-.36,.36-.94,0-1.3s-.94-.36-1.3,0L9.39,45.75l-1.16-1.16,28.32-28.32,3.23,3.23,14.22,14.22,3.23,3.23-12.45,12.45c-.36,.36-.36,.94,0,1.3s.94,.36,1.3,0l13.1-13.1c.36-.36,.36-.94,0-1.3l-3.23-3.23,9.78-9.78c.36-.36,.36-.94,0-1.3Zm-11.09,9.78l-12.92-12.92,9.13-9.13,12.92,12.92-9.13,9.13Z"/><path class="cls-1" d="M42.21,51.97l-3.26,3.26s-.02,.02-.02,.02l-6.91,6.91c-.35,.35-.83,.55-1.32,.51l-4.36-.22c-.5-.02-.94,.37-.97,.87-.03,.51,.37,.94,.87,.97l4.36,.22c.06,0,.12,0,.18,0,.95,0,1.86-.38,2.54-1.05l10.2-10.2c.36-.36,.36-.94,0-1.3s-.94-.36-1.3,0Z"/><path class="cls-1" d="M32.04,47.91c0-1.72-.67-3.34-1.89-4.56s-2.84-1.89-4.56-1.89-3.34,.67-4.56,1.89-1.89,2.84-1.89,4.56,.67,3.34,1.89,4.56,2.84,1.89,4.56,1.89,3.34-.67,4.56-1.89,1.89-2.84,1.89-4.56Zm-9.7,3.26c-1.79-1.79-1.79-4.71,0-6.51,.9-.9,2.08-1.35,3.26-1.35s2.36,.45,3.25,1.35c1.79,1.79,1.79,4.71,0,6.51-1.79,1.8-4.71,1.79-6.51,0Z"/><path class="cls-1" d="M49.17,17.17c-.39,.39-.39,1.02,0,1.41,.39,.39,1.02,.39,1.41,0,.39-.39,.39-1.02,0-1.41-.39-.39-1.02-.39-1.41,0Z"/><path class="cls-1" d="M56.33,24.33c.39-.39,.39-1.02,0-1.41-.39-.39-1.02-.39-1.41,0-.39,.39-.39,1.02,0,1.41,.39,.39,1.02,.39,1.41,0Z"/></g></g></svg>