<svg width="12" height="12" viewBox="0 0 12 12" fill="none" xmlns="http://www.w3.org/2000/svg">
<g id="error-color" clip-path="url(#clip0_356_25)">
<path id="Bottom Color" fill-rule="evenodd" clip-rule="evenodd" d="M6 1C3.243 1 1 3.243 1 6C1 8.757 3.243 11 6 11C8.757 11 11 8.757 11 6C11 3.243 8.757 1 6 1" fill="#AA0100"/>
<path id="Top Color" fill-rule="evenodd" clip-rule="evenodd" d="M6 11C3.243 11 1 8.757 1 6C1 3.243 3.243 1 6 1C8.757 1 11 3.243 11 6C11 8.757 8.757 11 6 11ZM6 0C2.687 0 0 2.687 0 6C0 9.313 2.687 12 6 12C9.313 12 12 9.313 12 6C12 2.687 9.313 0 6 0ZM7.768 3.525L6 5.293L4.232 3.525L3.525 4.232L5.293 6L3.525 7.768L4.232 8.475L6 6.707L7.768 8.475L8.475 7.768L6.707 6L8.475 4.232L7.768 3.525Z" fill="white"/>
</g>
<defs>
<clipPath id="clip0_356_25">
<rect width="12" height="12" fill="white"/>
</clipPath>
</defs>
</svg>
