<svg width="48" height="103" viewBox="0 0 48 103" fill="none" xmlns="http://www.w3.org/2000/svg">
<g id="optix-wizardapp-wand-black">
<path id="Vector" d="M28.3546 34.3216L17.9746 31.9116C17.0846 31.7016 16.1946 32.2616 15.9846 33.1516L11.4546 52.6316C11.4146 52.8016 12.1446 53.9016 11.7346 55.4716L8.83459 67.9616C8.50459 69.5516 7.3546 70.2916 7.3146 70.4516L0.874601 98.1616C0.664601 99.0516 1.22459 99.9416 2.11459 100.152L12.4846 102.562C13.3746 102.772 14.2646 102.212 14.4746 101.322L20.9146 73.6116C20.9546 73.4416 20.2446 72.2716 20.6546 70.7016L23.5546 58.2116C23.8846 56.6216 25.0146 55.9616 25.0546 55.7916L29.5846 36.3016C29.7946 35.4116 29.2346 34.5216 28.3446 34.3116L28.3546 34.3216ZM11.7046 89.5416L10.1646 96.1516C10.0446 96.6916 9.4946 97.0216 8.9646 96.9016C8.9146 96.8916 8.84458 96.8616 8.79458 96.8516L6.03461 95.6716C5.58461 95.4816 5.34459 94.9916 5.45459 94.5216L6.75461 88.9316C6.86461 88.4616 7.30461 88.1316 7.78461 88.1616L10.7846 88.3216C10.8346 88.3216 10.9046 88.3316 10.9646 88.3416C11.5046 88.4616 11.8346 89.0116 11.7146 89.5416H11.7046ZM16.9746 74.0916L10.6646 72.6216L12.4546 64.9216L18.7646 66.3916L16.9746 74.0916ZM19.1446 64.7716L12.8346 63.3016L14.6246 55.6016L20.9346 57.0716L19.1446 64.7716ZM21.4146 55.2416L15.5146 53.8716L16.1346 51.2116L22.0346 52.5816L21.4146 55.2416Z" fill="black"/>
<g id="Group">
<path id="Vector_2" d="M35.9046 37.9116C35.8646 37.8416 35.8746 37.7516 35.9446 37.6616L39.7946 31.9416C39.7946 31.9416 39.8246 31.8416 39.7946 31.8016L35.9446 26.0816C35.9146 26.0216 35.8946 25.9616 35.8946 25.9116C35.8946 25.7816 35.9746 25.7216 36.1346 25.7216H39.1246C39.2646 25.7216 39.3745 25.7816 39.4645 25.9116L41.6146 29.1916C41.6746 29.2916 41.7346 29.2916 41.7846 29.1916L43.9346 25.9116C44.0146 25.7816 44.1245 25.7216 44.2745 25.7216H47.4846C47.5946 25.7216 47.6646 25.7616 47.7046 25.8316C47.7346 25.9016 47.7246 25.9916 47.6546 26.0816L43.8246 31.8016C43.8246 31.8016 43.8046 31.9016 43.8246 31.9416L47.6546 37.6616C47.6546 37.6616 47.7046 37.7616 47.7046 37.8316C47.7046 37.9616 47.6346 38.0216 47.4846 38.0216H44.4646C44.3246 38.0216 44.2046 37.9616 44.1246 37.8316L41.9746 34.5516C41.9246 34.4516 41.8745 34.4516 41.8345 34.5516L39.6846 37.8316C39.6046 37.9616 39.4946 38.0216 39.3446 38.0216H36.1346C36.0246 38.0216 35.9446 37.9816 35.9046 37.9116Z" fill="black"/>
<path id="Vector_3" d="M26.8246 13.1616C26.7846 13.0916 26.7946 13.0016 26.8646 12.9116L30.7146 7.19156C30.7146 7.19156 30.7446 7.09156 30.7146 7.05156L26.8646 1.33156C26.8346 1.27156 26.8146 1.21156 26.8146 1.16156C26.8146 1.03156 26.8946 0.971558 27.0546 0.971558H30.0446C30.1846 0.971558 30.2946 1.03156 30.3846 1.16156L32.5346 4.44156C32.5946 4.54156 32.6546 4.54156 32.7046 4.44156L34.8546 1.16156C34.9346 1.03156 35.0446 0.971558 35.1946 0.971558H38.4045C38.5145 0.971558 38.5846 1.01156 38.6246 1.08156C38.6546 1.15156 38.6446 1.24156 38.5746 1.33156L34.7446 7.05156C34.7446 7.05156 34.7246 7.15156 34.7446 7.19156L38.5746 12.9116C38.5746 12.9116 38.6246 13.0116 38.6246 13.0816C38.6246 13.2116 38.5545 13.2716 38.4045 13.2716H35.3846C35.2446 13.2716 35.1246 13.2116 35.0446 13.0816L32.8946 9.80156C32.8446 9.70156 32.7946 9.70156 32.7546 9.80156L30.6046 13.0816C30.5246 13.2116 30.4146 13.2716 30.2646 13.2716H27.0546C26.9446 13.2716 26.8646 13.2316 26.8246 13.1616Z" fill="black"/>
<path id="Vector_4" d="M11.7746 22.4715C11.7346 22.4015 11.7446 22.3115 11.8146 22.2215L15.6646 16.5016C15.6646 16.5016 15.6946 16.4016 15.6646 16.3616L11.8146 10.6416C11.7846 10.5816 11.7646 10.5216 11.7646 10.4716C11.7646 10.3416 11.8446 10.2816 12.0046 10.2816H14.9946C15.1346 10.2816 15.2446 10.3416 15.3346 10.4716L17.4846 13.7516C17.5446 13.8516 17.6046 13.8516 17.6546 13.7516L19.8046 10.4716C19.8846 10.3416 19.9946 10.2816 20.1446 10.2816H23.3546C23.4646 10.2816 23.5346 10.3216 23.5746 10.3916C23.6046 10.4616 23.5946 10.5516 23.5246 10.6416L19.6946 16.3616C19.6946 16.3616 19.6746 16.4616 19.6946 16.5016L23.5246 22.2215C23.5246 22.2215 23.5746 22.3216 23.5746 22.3916C23.5746 22.5216 23.5046 22.5816 23.3546 22.5816H20.3346C20.1946 22.5816 20.0746 22.5216 19.9946 22.3916L17.8446 19.1116C17.7946 19.0116 17.7446 19.0116 17.7046 19.1116L15.5546 22.3916C15.4746 22.5216 15.3646 22.5816 15.2146 22.5816H12.0046C11.8946 22.5816 11.8146 22.5415 11.7746 22.4715Z" fill="black"/>
</g>
</g>
</svg>
