<svg width="16" height="16" viewBox="0 0 16 16" fill="none" xmlns="http://www.w3.org/2000/svg">
<g id="Refresh-md">
<g id="Vector">
<path fill-rule="evenodd" clip-rule="evenodd" d="M15 6V1L12.937 3.062C11.675 1.793 9.935 1 8 1C4.134 1 1 4.134 1 8C1 11.866 4.134 15 8 15C11.525 15 14.434 12.391 14.92 9H13.404C12.933 11.557 10.69 13.5 8 13.5C4.967 13.5 2.5 11.033 2.5 8C2.5 4.967 4.967 2.5 8 2.5C9.518 2.5 10.882 3.126 11.875 4.125L10 6H15Z" fill="black"/>
<path fill-rule="evenodd" clip-rule="evenodd" d="M15 6V1L12.937 3.062C11.675 1.793 9.935 1 8 1C4.134 1 1 4.134 1 8C1 11.866 4.134 15 8 15C11.525 15 14.434 12.391 14.92 9H13.404C12.933 11.557 10.69 13.5 8 13.5C4.967 13.5 2.5 11.033 2.5 8C2.5 4.967 4.967 2.5 8 2.5C9.518 2.5 10.882 3.126 11.875 4.125L10 6H15Z" fill="black"/>
</g>
</g>
</svg>
