<svg width="12" height="12" viewBox="0 0 12 12" fill="none" xmlns="http://www.w3.org/2000/svg">
<g id="tag">
<path id="Vector" d="M5.84 0.830002L0 6.67L5.05 11.72L10.9 5.87L10.18 1.55L5.84 0.830002ZM5.05 10.18L1.54 6.67L6.22 2L9.22 2.5L9.72 5.5L5.05 10.18ZM8 3C7.8576 3 7.71839 3.04223 7.59999 3.12134C7.48159 3.20046 7.3893 3.31291 7.33481 3.44447C7.28031 3.57603 7.26605 3.7208 7.29383 3.86047C7.32162 4.00013 7.39019 4.12843 7.49088 4.22912C7.59158 4.32981 7.71987 4.39839 7.85953 4.42617C7.9992 4.45395 8.14397 4.43969 8.27553 4.3852C8.40709 4.3307 8.51954 4.23842 8.59866 4.12001C8.67777 4.00161 8.72 3.8624 8.72 3.72C8.72 3.52905 8.64414 3.34591 8.50912 3.21089C8.37409 3.07586 8.19096 3 8 3Z" fill="black"/>
</g>
</svg>
